<svg width="17" height="17" viewBox="0 0 17 17" fill="none" xmlns="http://www.w3.org/2000/svg">
<path d="M15.0522 8.5H6.30071M3.21166 8.5H1.948M3.21166 8.5C3.21166 8.09046 3.37435 7.6977 3.66394 7.40811C3.95353 7.11853 4.34629 6.95584 4.75583 6.95584C5.16537 6.95584 5.55813 7.11853 5.84772 7.40811C6.13731 7.6977 6.3 8.09046 6.3 8.5C6.3 8.90954 6.13731 9.30231 5.84772 9.59189C5.55813 9.88148 5.16537 10.0442 4.75583 10.0442C4.34629 10.0442 3.95353 9.88148 3.66394 9.59189C3.37435 9.30231 3.21166 8.90954 3.21166 8.5ZM15.0522 13.18H10.9807M10.9807 13.18C10.9807 13.5896 10.8176 13.9828 10.5279 14.2725C10.2383 14.5621 9.84542 14.7248 9.43579 14.7248C9.02625 14.7248 8.63349 14.5614 8.3439 14.2719C8.05431 13.9823 7.89162 13.5895 7.89162 13.18M10.9807 13.18C10.9807 12.7703 10.8176 12.3778 10.5279 12.0882C10.2383 11.7985 9.84542 11.6358 9.43579 11.6358C9.02625 11.6358 8.63349 11.7985 8.3439 12.0881C8.05431 12.3777 7.89162 12.7704 7.89162 13.18M7.89162 13.18H1.948M15.0522 3.82005H12.8528M9.76375 3.82005H1.948M9.76375 3.82005C9.76375 3.41051 9.92644 3.01774 10.216 2.72815C10.5056 2.43857 10.8984 2.27588 11.3079 2.27588C11.5107 2.27588 11.7115 2.31582 11.8988 2.39342C12.0862 2.47102 12.2564 2.58477 12.3998 2.72815C12.5432 2.87154 12.6569 3.04177 12.7345 3.22912C12.8121 3.41647 12.8521 3.61726 12.8521 3.82005C12.8521 4.02283 12.8121 4.22363 12.7345 4.41097C12.6569 4.59832 12.5432 4.76855 12.3998 4.91194C12.2564 5.05532 12.0862 5.16907 11.8988 5.24667C11.7115 5.32427 11.5107 5.36421 11.3079 5.36421C10.8984 5.36421 10.5056 5.20152 10.216 4.91194C9.92644 4.62235 9.76375 4.22958 9.76375 3.82005Z" stroke="#A761C1" stroke-miterlimit="10" stroke-linecap="round"/>
</svg>
