<svg width="30" height="29" viewBox="0 0 30 29" fill="none" xmlns="http://www.w3.org/2000/svg">
<g filter="url(#filter0_d_60_987)">
<rect x="4.12658" width="21.2658" height="21" rx="3" fill="url(#paint0_linear_60_987)"/>
<path d="M15.7361 14.4234C15.2124 14.7067 13.9397 16.3333 11.7358 16.3333C10.1367 16.3333 8.86015 15.8581 7.90626 14.9077C6.96172 13.9391 6.48946 12.6643 6.48946 11.0833C6.48946 9.52065 6.97108 8.25498 7.93432 7.28632C8.89756 6.31765 10.1647 5.83331 11.7358 5.83331C12.8768 5.83331 13.4208 5.96263 14.1907 6.20342C14.9606 6.44421 14.7144 7.84833 14.0785 7.60159C13.4426 7.35485 12.6617 7.23149 11.7358 7.23149C10.6043 7.23149 9.70181 7.58788 9.02848 8.30068C8.35515 9.01347 8.01848 9.94102 8.01848 11.0833C8.01848 12.2713 8.3458 13.2034 9.00043 13.8797C9.66441 14.5833 10.5762 14.9351 11.7358 14.9351C13.3981 14.9945 14.7518 13.5918 15.3316 13.2902L15.7361 14.4234Z" fill="white"/>
<path d="M22.9846 10.4116C22.9846 11.0833 22.9846 15.2833 22.9846 15.7165C22.9846 16.1496 20.8898 16.3333 19.7022 16.3333C18.0936 16.3333 16.8124 15.849 15.8585 14.8803C14.9234 13.9299 14.4558 12.6643 14.4558 11.0833C14.4558 9.50237 14.9374 8.23671 15.9006 7.28632C16.8639 6.31765 18.1357 5.83331 19.7162 5.83331C20.9319 5.83331 21.8905 5.9978 22.5919 6.32679C23.2933 6.65577 23.0922 8.14532 22.4095 7.77979C21.7268 7.41425 20.829 7.23149 19.7162 7.23149C18.5659 7.23149 17.6541 7.59245 16.9808 8.31438C16.3261 9.0089 15.9988 9.93188 15.9988 11.0833C15.9988 12.2439 16.3168 13.1714 16.9527 13.8659C17.6073 14.5787 18.5238 14.9351 19.7022 14.9351C20.4597 14.9351 21.0348 14.862 21.4276 14.7158V11.8098C21.4276 11.8098 19.5989 11.9816 19.2673 11.8098C18.7894 11.5623 18.8324 10.5759 19.2673 10.4116C19.7022 10.2474 22.9846 9.73997 22.9846 10.4116Z" fill="white"/>
</g>
<defs>
<filter id="filter0_d_60_987" x="0.126579" y="0" width="29.2658" height="29" filterUnits="userSpaceOnUse" color-interpolation-filters="sRGB">
<feFlood flood-opacity="0" result="BackgroundImageFix"/>
<feColorMatrix in="SourceAlpha" type="matrix" values="0 0 0 0 0 0 0 0 0 0 0 0 0 0 0 0 0 0 127 0" result="hardAlpha"/>
<feOffset dy="4"/>
<feGaussianBlur stdDeviation="2"/>
<feComposite in2="hardAlpha" operator="out"/>
<feColorMatrix type="matrix" values="0 0 0 0 0 0 0 0 0 0 0 0 0 0 0 0 0 0 0.25 0"/>
<feBlend mode="normal" in2="BackgroundImageFix" result="effect1_dropShadow_60_987"/>
<feBlend mode="normal" in="SourceGraphic" in2="effect1_dropShadow_60_987" result="shape"/>
</filter>
<linearGradient id="paint0_linear_60_987" x1="23.7975" y1="2.1" x2="5.41722" y2="20.1811" gradientUnits="userSpaceOnUse">
<stop stop-color="#B864C7"/>
<stop offset="1" stop-color="#047AD4"/>
</linearGradient>
</defs>
</svg>
