<svg width="17" height="17" viewBox="0 0 17 17" fill="none" xmlns="http://www.w3.org/2000/svg">
<path d="M8.50003 10.7501C9.81804 10.7501 10.8865 9.7427 10.8865 8.50006C10.8865 7.25742 9.81804 6.25006 8.50003 6.25006C7.18203 6.25006 6.11357 7.25742 6.11357 8.50006C6.11357 9.7427 7.18203 10.7501 8.50003 10.7501Z" stroke="#494949" stroke-width="0.8"/>
<path d="M9.90403 1.114C9.61209 1 9.24139 1 8.5 1C7.75861 1 7.38791 1 7.09597 1.114C6.90281 1.18938 6.7273 1.29992 6.57947 1.43929C6.43165 1.57866 6.31441 1.74414 6.23445 1.92625C6.16127 2.0935 6.13183 2.28925 6.1207 2.5735C6.11574 2.77899 6.05547 2.97992 5.94554 3.15743C5.83561 3.33493 5.67964 3.48318 5.49226 3.58825C5.30206 3.68878 5.08787 3.74208 4.86982 3.74313C4.65177 3.74418 4.43702 3.69295 4.24573 3.59425C3.97845 3.46075 3.78515 3.38725 3.59344 3.36325C3.17526 3.3114 2.75237 3.41823 2.41771 3.66025C2.16792 3.8425 1.98178 4.14475 1.61108 4.75C1.24038 5.35525 1.05424 5.6575 1.01367 5.95375C0.986334 6.14909 1.00008 6.34759 1.05413 6.53792C1.10818 6.72825 1.20148 6.90667 1.32868 7.063C1.44642 7.207 1.61108 7.32775 1.86643 7.47925C2.2427 7.702 2.48453 8.0815 2.48453 8.5C2.48453 8.9185 2.2427 9.298 1.86643 9.52C1.61108 9.67225 1.44562 9.793 1.32868 9.937C1.20148 10.0933 1.10818 10.2718 1.05413 10.4621C1.00008 10.6524 0.986334 10.8509 1.01367 11.0463C1.05504 11.3418 1.24038 11.6448 1.61029 12.25C1.98178 12.8552 2.16713 13.1575 2.41771 13.3397C2.58351 13.4597 2.77276 13.5476 2.97463 13.5986C3.1765 13.6496 3.38704 13.6625 3.59423 13.6368C3.78515 13.6128 3.97845 13.5393 4.24573 13.4058C4.43702 13.3071 4.65177 13.2558 4.86982 13.2569C5.08787 13.2579 5.30206 13.3112 5.49226 13.4117C5.87648 13.6217 6.10479 14.008 6.1207 14.4265C6.13183 14.7115 6.16047 14.9065 6.23445 15.0737C6.31441 15.2559 6.43165 15.4213 6.57947 15.5607C6.7273 15.7001 6.90281 15.8106 7.09597 15.886C7.38791 16 7.75861 16 8.5 16C9.24139 16 9.61209 16 9.90403 15.886C10.0972 15.8106 10.2727 15.7001 10.4205 15.5607C10.5683 15.4213 10.6856 15.2559 10.7655 15.0737C10.8387 14.9065 10.8682 14.7115 10.8793 14.4265C10.8952 14.008 11.1235 13.621 11.5077 13.4117C11.6979 13.3112 11.9121 13.2579 12.1302 13.2569C12.3482 13.2558 12.563 13.3071 12.7543 13.4058C13.0215 13.5393 13.2149 13.6128 13.4058 13.6368C13.613 13.6625 13.8235 13.6496 14.0254 13.5986C14.2272 13.5476 14.4165 13.4597 14.5823 13.3397C14.8329 13.1582 15.0182 12.8552 15.3889 12.25C15.7596 11.6448 15.9458 11.3425 15.9863 11.0463C16.0137 10.8509 15.9999 10.6524 15.9459 10.4621C15.8918 10.2718 15.7985 10.0933 15.6713 9.937C15.5536 9.793 15.3889 9.67225 15.1336 9.52075C14.9472 9.41396 14.7927 9.26425 14.6846 9.08569C14.5765 8.90713 14.5183 8.70559 14.5155 8.5C14.5155 8.0815 14.7573 7.702 15.1336 7.48C15.3889 7.32775 15.5544 7.207 15.6713 7.063C15.7985 6.90667 15.8918 6.72825 15.9459 6.53792C15.9999 6.34759 16.0137 6.14909 15.9863 5.95375C15.945 5.65825 15.7596 5.35525 15.3897 4.75C15.0182 4.14475 14.8329 3.8425 14.5823 3.66025C14.4165 3.54032 14.2272 3.45236 14.0254 3.4014C13.8235 3.35044 13.613 3.33748 13.4058 3.36325C13.2149 3.38725 13.0215 3.46075 12.7535 3.59425C12.5623 3.69281 12.3477 3.74397 12.1298 3.74292C11.9119 3.74187 11.6978 3.68865 11.5077 3.58825C11.3204 3.48318 11.1644 3.33493 11.0545 3.15743C10.9445 2.97992 10.8843 2.77899 10.8793 2.5735C10.8682 2.2885 10.8395 2.0935 10.7655 1.92625C10.6856 1.74414 10.5683 1.57866 10.4205 1.43929C10.2727 1.29992 10.0972 1.18938 9.90403 1.114Z" stroke="#494949" stroke-width="0.8"/>
</svg>
